<?xml version="1.0" encoding="UTF-8" standalone="no"?>
<svg width="924px" height="197px" viewBox="0 0 924 197" version="1.1" xmlns="http://www.w3.org/2000/svg" xmlns:xlink="http://www.w3.org/1999/xlink">
    <!-- Generator: Sketch 3.7.1 (28215) - http://www.bohemiancoding.com/sketch -->
    <title>Slice 1</title>
    <desc>Created with Sketch.</desc>
    <defs></defs>
    <g id="Page-1" stroke="none" stroke-width="1" fill="none" fill-rule="evenodd">
        <path d="M0.96,0.84 L15.45,0.84 L15.45,63.84 C26.9300574,48.5799237 40.8599181,40.95 57.24,40.95 C65.640042,40.95 73.1999664,43.2249772 79.92,47.775 C86.6400336,52.3250228 91.399986,58.2749633 94.2,65.625 C97.000014,72.9750367 98.4,83.7899286 98.4,98.07 L98.4,155.4 L83.91,155.4 L83.91,102.27 C83.91,90.7899426 83.5600035,82.8800217 82.86,78.54 C82.1599965,74.1999783 80.6200119,70.0700196 78.24,66.15 C75.8599881,62.2299804 72.67502,59.2550101 68.685,57.225 C64.69498,55.1949898 59.8650284,54.18 54.195,54.18 C48.5249716,54.18 43.1000259,55.5099867 37.92,58.17 C32.7399741,60.8300133 28.3300182,64.5399762 24.69,69.3 C21.0499818,74.0600238 18.6000063,78.9599748 17.34,84 C16.0799937,89.0400252 15.45,99.1899237 15.45,114.45 L15.45,155.4 L0.96,155.4 L0.96,0.84 Z M109.55,43.89 L124.67,43.89 L163.1,129.78 L200.27,43.89 L215.6,43.89 L149.03,196.14 L133.91,196.14 L155.33,147 L109.55,43.89 Z M337.84,0.84 L337.84,155.4 L323.77,155.4 L323.77,136.29 C311.029936,151.550076 296.435082,159.18 279.985,159.18 C263.534918,159.18 249.710056,153.370058 238.51,141.75 C227.309944,130.129942 221.71,116.200081 221.71,99.96 C221.71,83.7199188 227.379943,69.8250578 238.72,58.275 C250.060057,46.7249423 263.639921,40.95 279.46,40.95 C297.660091,40.95 312.429943,48.7199223 323.77,64.26 L323.77,0.84 L337.84,0.84 Z M324.61,100.38 C324.61,87.6399363 320.410042,76.8600441 312.01,68.04 C303.609958,59.2199559 293.110063,54.81 280.51,54.81 C267.909937,54.81 257.375042,59.3249549 248.905,68.355 C240.434958,77.3850451 236.2,88.0249388 236.2,100.275 C236.2,112.525061 240.539957,123.199954 249.22,132.3 C257.900043,141.400046 268.154941,145.95 279.985,145.95 C291.815059,145.95 302.209955,141.645043 311.17,133.035 C320.130045,124.424957 324.61,113.540066 324.61,100.38 L324.61,100.38 Z M357.39,43.89 L372.09,43.89 L372.09,60.06 C376.01002,53.4799671 379.824982,48.6500154 383.535,45.57 C387.245019,42.4899846 391.374977,40.95 395.925,40.95 C400.475023,40.95 405.059977,42.2099874 409.68,44.73 L402.12,56.91 C400.01999,55.6499937 397.850011,55.02 395.61,55.02 C391.269978,55.02 387.175019,57.2599776 383.325,61.74 C379.474981,66.2200224 376.640009,71.9949647 374.82,79.065 C372.999991,86.1350353 372.09,98.9799069 372.09,117.6 L372.09,155.4 L357.39,155.4 L357.39,43.89 Z M413.27,100.38 C413.27,83.9999181 418.904944,70.0000581 430.175,58.38 C441.445057,46.7599419 455.164919,40.95 471.335,40.95 C487.505081,40.95 501.224944,46.7599419 512.495,58.38 C523.765057,70.0000581 529.4,83.9299188 529.4,100.17 C529.4,116.410081 523.835056,130.304942 512.705,141.855 C501.574945,153.405058 487.820082,159.18 471.44,159.18 C455.059918,159.18 441.270056,153.405058 430.07,141.855 C418.869944,130.304942 413.27,116.48008 413.27,100.38 L413.27,100.38 Z M514.91,100.59 C514.91,88.2699384 510.605043,77.5950452 501.995,68.565 C493.384957,59.5349548 483.165059,55.02 471.335,55.02 C459.504941,55.02 449.320043,59.5349548 440.78,68.565 C432.239957,77.5950452 427.97,88.3399377 427.97,100.8 C427.97,113.260062 432.099959,123.829957 440.36,132.51 C448.620041,141.190043 458.874939,145.53 471.125,145.53 C483.375061,145.53 493.734958,141.155044 502.205,132.405 C510.675043,123.654956 514.91,113.050062 514.91,100.59 L514.91,100.59 Z M646.18,43.89 L660.67,43.89 L660.67,129.99 C660.67,145.250076 659.340013,156.449964 656.68,163.59 C654.019987,170.730036 650.170025,176.679976 645.13,181.44 C640.089975,186.200024 634.000036,189.839987 626.86,192.36 C619.719964,194.880013 611.880043,196.14 603.34,196.14 C574.219855,196.14 555.040046,184.520116 545.8,161.28 L561.34,161.28 C569.460041,175.840073 583.249903,183.12 602.71,183.12 C612.090047,183.12 620.244966,181.300018 627.175,177.66 C634.105035,174.019982 639.004986,169.365028 641.875,163.695 C644.745015,158.024972 646.18,149.17006 646.18,137.13 L646.18,132.3 C640.439971,139.440036 633.650039,144.759982 625.81,148.26 C617.969961,151.760018 609.710044,153.51 601.03,153.51 C584.789919,153.51 571.280054,147.980055 560.5,136.92 C549.719946,125.859945 544.33,112.840075 544.33,97.86 C544.33,82.3199223 550.069943,68.950056 561.55,57.75 C573.030058,46.549944 586.924919,40.95 603.235,40.95 C619.545082,40.95 633.859939,48.3699258 646.18,63.21 L646.18,43.89 Z M646.81,97.86 C646.81,85.6799391 642.680041,75.4600413 634.42,67.2 C626.159959,58.9399587 615.940061,54.81 603.76,54.81 C590.879936,54.81 580.170043,59.2549555 571.63,68.145 C563.089957,77.0350444 558.82,87.2199426 558.82,98.7 C558.82,110.180057 562.949959,119.94496 571.21,127.995 C579.470041,136.04504 590.039936,140.07 602.92,140.07 C615.800065,140.07 626.334959,136.150039 634.525,128.31 C642.715041,120.469961 646.81,110.320062 646.81,97.86 L646.81,97.86 Z M776.19,119.28 L788.37,125.58 C776.32994,147.980112 758.550118,159.18 735.03,159.18 C718.229916,159.18 704.370055,153.405058 693.45,141.855 C682.529946,130.304942 677.07,116.410081 677.07,100.17 C677.07,83.9299188 682.564945,70.0000581 693.555,58.38 C704.545055,46.7599419 718.124919,40.95 734.295,40.95 C750.465081,40.95 764.044945,46.3399461 775.035,57.12 C786.025055,67.9000539 791.729998,82.5999069 792.15,101.22 L691.77,101.22 C692.190002,114.660067 696.42496,125.474959 704.475,133.665 C712.52504,141.855041 722.289943,145.95 733.77,145.95 C752.670095,145.95 766.809953,137.060089 776.19,119.28 L776.19,119.28 Z M776.19,88.83 C774.22999,78.1899468 769.330039,69.8600301 761.49,63.84 C753.649961,57.8199699 744.620051,54.81 734.4,54.81 C713.399895,54.81 699.680032,66.1498866 693.24,88.83 L776.19,88.83 Z M811.28,43.89 L825.77,43.89 L825.77,63.84 C837.250058,48.5799237 851.179918,40.95 867.56,40.95 C875.960042,40.95 883.519967,43.2249772 890.24,47.775 C896.960034,52.3250228 901.719986,58.2749633 904.52,65.625 C907.320014,72.9750367 908.72,83.7899286 908.72,98.07 L908.72,155.4 L894.44,155.4 L894.44,102.27 C894.44,89.2499349 893.845006,80.4300231 892.655,75.81 C891.464994,71.1899769 889.645013,67.2700161 887.195,64.05 C884.744988,60.8299839 881.630019,58.3800084 877.85,56.7 C874.069981,55.0199916 869.485027,54.18 864.095,54.18 C858.704973,54.18 853.420026,55.5099867 848.24,58.17 C843.059974,60.8300133 838.650018,64.5399762 835.01,69.3 C831.369982,74.0600238 828.920007,78.9599748 827.66,84 C826.399994,89.0400252 825.77,99.1899237 825.77,114.45 L825.77,155.4 L811.28,155.4 L811.28,43.89 Z" id="hydrogen" fill="#4C4C4C"></path>
        <circle id="Oval-1" stroke="#4C4C4C" fill="#4C4C4C" cx="471" cy="100" r="19"></circle>
        <circle id="Oval-2" stroke="#B20000" fill="#B20000" cx="456" cy="50" r="16"></circle>
    </g>
</svg>