<?xml version="1.0" encoding="UTF-8" standalone="no"?>
<svg width="80px" height="82px" viewBox="0 0 80 82" version="1.1" xmlns="http://www.w3.org/2000/svg" xmlns:xlink="http://www.w3.org/1999/xlink">
    <!-- Generator: Sketch 3.7.1 (28215) - http://www.bohemiancoding.com/sketch -->
    <title>Slice 1</title>
    <desc>Created with Sketch.</desc>
    <defs></defs>
    <g id="Page-1" stroke="none" stroke-width="1" fill="none" fill-rule="evenodd">
        <path d="M6.222,40.716 C6.222,31.1999524 9.49563393,23.0667004 16.043,16.316 C22.5903661,9.56529958 30.560953,6.19 39.955,6.19 C49.349047,6.19 57.3196339,9.56529958 63.867,16.316 C70.4143661,23.0667004 73.688,31.1592862 73.688,40.594 C73.688,50.0287138 70.4550323,58.1009664 63.989,64.811 C57.5229677,71.5210335 49.5320476,74.876 40.016,74.876 C30.4999524,74.876 22.4886992,71.5210335 15.982,64.811 C9.4753008,58.1009664 6.222,50.0693801 6.222,40.716 L6.222,40.716 Z M65.27,40.838 C65.27,33.6806309 62.769025,27.4790262 57.767,22.233 C52.764975,16.9869738 46.827701,14.364 39.955,14.364 C33.082299,14.364 27.1653581,16.9869738 22.204,22.233 C17.2426419,27.4790262 14.762,33.7212971 14.762,40.96 C14.762,48.1987029 17.1613093,54.3393081 21.96,59.382 C26.7586907,64.4246919 32.7162977,66.946 39.833,66.946 C46.9497022,66.946 52.9683087,64.4043588 57.889,59.321 C62.8096913,54.2376412 65.27,48.0767029 65.27,40.838 L65.27,40.838 Z" id="o" fill="#4C4C4C"></path>
        <circle id="Oval-1" stroke="#B21700" fill="#B21700" cx="30" cy="11" r="9"></circle>
        <polygon id="H" stroke="#4C4C4C" stroke-width="4" fill="#4C4C4C" points="49.708 53.84 46.612 53.84 46.612 41.348 33.976 41.348 33.976 53.84 30.844 53.84 30.844 27.488 33.976 27.488 33.976 38.324 46.612 38.324 46.612 27.488 49.708 27.488"></polygon>
    </g>
</svg>